<?xml version="1.0" standalone="no"?>
<!DOCTYPE svg PUBLIC "-//W3C//DTD SVG 20010904//EN"
 "http://www.w3.org/TR/2001/REC-SVG-20010904/DTD/svg10.dtd">
<svg version="1.0" xmlns="http://www.w3.org/2000/svg"
 width="142.000000pt" height="142.000000pt" viewBox="0 0 142.000000 142.000000"
 preserveAspectRatio="xMidYMid meet">
<metadata>
Created by potrace 1.11, written by Peter Selinger 2001-2013
</metadata>
<g transform="translate(0.000000,142.000000) scale(0.100000,-0.100000)"
fill="#000000" stroke="none">
<path d="M840 1219 c-52 -21 -86 -70 -94 -135 -3 -21 -9 -40 -13 -42 -4 -1
-75 -36 -158 -76 l-150 -74 -30 28 c-74 69 -174 84 -255 39 -157 -88 -157
-301 0 -388 87 -49 213 -23 270 54 14 19 29 35 33 35 7 0 246 -101 486 -204
73 -32 74 -32 76 -74 6 -95 89 -175 180 -174 163 4 241 184 134 307 -32 36
-105 66 -145 59 -17 -3 -25 9 -53 79 -18 45 -37 91 -42 102 -5 11 -26 63 -48
115 -35 85 -38 97 -24 112 8 9 21 33 28 54 39 114 -81 228 -195 183z m20 -284
c17 -4 46 -4 63 -1 l32 6 78 -192 c70 -175 76 -193 60 -202 -10 -5 -32 -25
-49 -43 l-31 -34 -169 72 c-93 39 -191 82 -219 94 -27 12 -76 33 -108 46 -56
22 -58 24 -56 58 1 20 -1 54 -5 76 l-7 40 153 76 153 75 36 -32 c20 -17 51
-35 69 -39z"/>
</g>
</svg>
